<?xml version="1.0" standalone="no"?>
<svg
  width="600"
  height="600"
  viewBox="0 0 600 600"
  xmlns="http://www.w3.org/2000/svg"
>
  <g transform="translate(300,300)">
    <path d="M77.5,-140.9C101.3,-105.3,122.1,-85.3,129.8,-61.3C137.4,-37.4,132.1,-9.6,134.8,24.3C137.6,58.2,148.5,98.2,136.3,125.5C124.2,152.9,88.8,167.6,55.5,167.6C22.2,167.6,-9.2,152.9,-36.1,138.1C-63.1,123.3,-85.6,108.5,-119.9,91.4C-154.2,74.2,-200.3,54.8,-216,23.9C-231.6,-7.1,-216.8,-49.7,-187.5,-73.9C-158.2,-98.2,-114.5,-104.2,-80.9,-135.3C-47.2,-166.5,-23.6,-222.7,1.6,-225.3C26.9,-227.8,53.7,-176.6,77.5,-140.9Z" fill="#8ed1fc" />
  </g>
</svg>
  