<?xml version="1.0" standalone="no"?>
<svg
  width="600"
  height="600"
  viewBox="0 0 600 600"
  xmlns="http://www.w3.org/2000/svg"
>
  <g transform="translate(300,300)">
    <path d="M111.1,-182.2C138.3,-155.5,150.5,-114.9,169.5,-76.5C188.4,-38.1,214,-1.8,217.9,37.5C221.9,76.9,204.3,119.3,178.4,161.4C152.5,203.5,118.4,245.2,74.8,260.6C31.3,276,-21.7,265.1,-51.9,231.3C-82,197.5,-89.4,140.6,-122.1,104.8C-154.9,68.9,-213.1,53.9,-222.1,28.5C-231.1,3,-191.1,-33,-157.9,-58.1C-124.6,-83.3,-98.3,-97.6,-73.1,-125.3C-47.9,-152.9,-24,-194,9,-208C42,-222,84,-209,111.1,-182.2Z" fill="#0693e3" />
  </g>
</svg>
  