<?xml version="1.0" standalone="no"?>
<svg
  width="600"
  height="600"
  viewBox="0 0 600 600"
  xmlns="http://www.w3.org/2000/svg"
>
  <g transform="translate(300,300)">
    <path d="M75.6,-144.3C80.9,-114.2,56.4,-64.4,83,-30.7C109.6,3,187.5,20.6,211.4,48.3C235.3,76.1,205.3,114,169,134.7C132.8,155.3,90.2,158.7,50.1,170.5C10,182.3,-27.7,202.5,-69.6,204.9C-111.6,207.3,-157.8,192.1,-170.4,158.3C-182.9,124.6,-161.7,72.4,-155.2,30.4C-148.6,-11.6,-156.6,-43.4,-147,-68.2C-137.3,-93,-110,-110.9,-82.6,-130.8C-55.1,-150.8,-27.6,-172.9,3.8,-178.8C35.1,-184.7,70.3,-174.4,75.6,-144.3Z" fill="#0693e3" />
  </g>
</svg>
  